Coordinates
version=1
nRows=9
nColumns=40
inDegrees=yes

Units are S.I. units (second, meters, Newtons, ...)
If the header above contains a line with 'inDegrees', this indicates whether rotational values are in degrees (yes) or radians (no).

endheader
time	pelvis_tilt	pelvis_list	pelvis_rotation	pelvis_tx	pelvis_ty	pelvis_tz	hip_flexion_r	hip_adduction_r	hip_rotation_r	knee_angle_r	knee_angle_r_beta	ankle_angle_r	subtalar_angle_r	mtp_angle_r	hip_flexion_l	hip_adduction_l	hip_rotation_l	knee_angle_l	knee_angle_l_beta	ankle_angle_l	subtalar_angle_l	mtp_angle_l	lumbar_extension	lumbar_bending	lumbar_rotation	arm_flex_r	arm_add_r	arm_rot_r	elbow_flex_r	pro_sup_r	wrist_flex_r	wrist_dev_r	arm_flex_l	arm_add_l	arm_rot_l	elbow_flex_l	pro_sup_l	wrist_flex_l	wrist_dev_l
      5.00000000000000000000	     44.55616497723605107240	     -1.67411113511125919651	   -176.58485655763033150834	      0.43190018116508460677	      0.62085527211411295490	     -0.61399244727770418972	    108.04571178306248668832	    -13.08491500432278442645	      2.13076457290436449554	     78.06009101734480282175	      1.36240560265911692106	     19.18721685028962298247	      0.00000000000000000000	      0.00000000000000000000	    106.36237971808183999656	     -5.86326662384566343889	     -0.02610542341669918817	     74.85513929292673651616	      1.30646864270055163004	     15.06669112804664223404	      0.00000000000000000000	      0.00000000000000000000	    -24.18965319174254702261	      3.01850679674087807314	      3.28332155948651527311	     64.05989933962062821138	    -14.33842105155276236417	     45.57641038311820835816	      2.57205438217335302653	     88.30429612228066105217	      0.00000000000000000000	      0.00000000000000000000	     54.80331787357621919909	      0.39889694212514031912	     49.33480210419212852457	      0.63053141938118484333	      2.73015241999484370439	      0.00000000000000000000	      0.00000000000000000000
      5.00499999999999989342	     44.71935562275746178784	     -1.97629748326841547801	   -176.46841744870150137103	      0.43198439739191629716	      0.62243147331928472266	     -0.61329797593540624767	    108.09159517921364113135	    -13.17659374427687168918	      2.44965911123098001312	     77.72428233061945945792	      1.35654463541896141976	     18.89058275683022003477	      0.00000000000000000000	      0.00000000000000000000	    106.18586136482169024475	     -5.85893474910338074579	     -0.59078855452104728219	     74.43857101871661541281	      1.29919815475623456891	     14.92883467675217978865	      0.00000000000000000000	      0.00000000000000000000	    -24.23574760286753004834	      2.88525209388506187480	      2.95517830142063653298	     64.23294311691252289620	    -14.24380624604214240492	     46.21552174529593770558	      2.49218339759771234654	     88.20794852715543754584	      0.00000000000000000000	      0.00000000000000000000	     55.34260818385541824682	      0.52884687209712211153	     45.59287500450611219094	      0.64094415316466957222	      2.73716597941550787709	      0.00000000000000000000	      0.00000000000000000000
      5.00999999999999978684	     44.91907178487470986283	     -1.93890068023040829104	   -176.44882036208971953783	      0.43227613606063547413	      0.62385330241392666917	     -0.61328022009027993722	    108.05973937089727598959	    -13.17939194812334058327	      2.37913170590013800521	     77.34962737708043789553	      1.35000567292079920456	     18.72649466807564877513	      0.00000000000000000000	      0.00000000000000000000	    106.17716950361553074345	     -5.82203633017471400279	     -0.61901697396139099272	     74.01794280374052448224	      1.29185680747811515445	     14.63503987138510709087	      0.00000000000000000000	      0.00000000000000000000	    -24.18490538550720359012	      2.88476665414456912018	      3.05991475637695931056	     64.23248697797036754764	    -14.37524777815051280072	     45.52253490026158289083	      2.57471483788206478849	     88.32290864188136936264	      0.00000000000000000000	      0.00000000000000000000	     54.90415695503147475165	      0.45596507235754479836	     49.32864278903577570645	      0.62720881107447234992	      2.74639011853211112424	      0.00000000000000000000	      0.00000000000000000000
      5.01499999999999968026	     44.96139497058013745345	     -1.76644105344408863800	   -176.55153789982350076571	      0.43219782209426022002	      0.62525258809343142730	     -0.61361962490787114177	    107.81413270476058130498	    -13.04883539601461528434	      2.16463523321537687494	     77.03554232273454260849	      1.34452385459115797417	     18.64590951065919455232	      0.00000000000000000000	      0.00000000000000000000	    106.05123462445170900992	     -5.77061157402411328832	     -0.25106138856142323768	     73.72753493272460900698	      1.28678823395518038275	     14.57709995847812045611	      0.00000000000000000000	      0.00000000000000000000	    -24.30646109730315274078	      3.02358962560024790989	      3.21761294203395564750	     64.30823150438975233101	    -14.35558067663609804754	     45.56686913105860270434	      2.54815117321082240665	     88.31024335212019593655	      0.00000000000000000000	      0.00000000000000000000	     55.00968785466472610324	      0.48436325213735315076	     48.94792444964300415222	      0.62581800535280229791	      2.73894437443930094389	      0.00000000000000000000	      0.00000000000000000000
      5.01999999999999957367	     45.01906093920427309740	     -1.94021651517342186288	   -176.62474002141760820450	      0.43213582402146738515	      0.62688238243909311098	     -0.61363025953470229368	    107.67218075724862558218	    -12.94271538331352466855	      2.26498362816489784421	     76.68383372193152069940	      1.33838538149956276513	     18.47977918118096596345	      0.00000000000000000000	      0.00000000000000000000	    105.81741012213549879561	     -5.87944828517024564718	     -0.49266595862109863191	     73.38739383545077998861	      1.28085165188640592859	     14.48729706786278015329	      0.00000000000000000000	      0.00000000000000000000	    -24.45205165714304484936	      2.84463181292690325819	      3.24526053251558410651	     64.38786373598142631636	    -14.37333212810007765370	     45.37932709341266956926	      2.52018076176575878122	     88.29564443142534457820	      0.00000000000000000000	      0.00000000000000000000	     55.02617362992140925826	      0.49478921745747395100	     49.33912991900999855943	      0.62295747467356554772	      2.78968279098202964761	      0.00000000000000000000	      0.00000000000000000000
      5.02500000000000035527	     45.19587791835536449980	     -1.51332929674658145380	   -176.17208659775189971697	      0.43231599067454334895	      0.62826184300139220618	     -0.61267357564215085830	    107.57891151632505000180	    -13.56010374809000396112	      1.86648026987810400357	     76.43246195618476690470	      1.33399811654073019440	     18.24380746826866328547	      0.00000000000000000000	      0.00000000000000000000	    105.86790226154620597754	     -5.26947768565870333646	     -0.16124512733819126864	     72.94466924795614204413	      1.27312465015509057586	     13.92547544273820747662	      0.00000000000000000000	      0.00000000000000000000	    -24.39617359626067383260	      3.51326292272786089299	      2.94476052955287004309	     64.51665149936233945027	    -14.39590887750818026802	     45.78119227802689295004	      2.52162387799675746791	     88.45609951691567118814	      0.00000000000000000000	      0.00000000000000000000	     55.71471076330571037261	      0.78988744237800445624	     44.37905953127744851372	      0.63185280459965609268	      3.02751054279204900865	      0.00000000000000000000	      0.00000000000000000000
      5.03000000000000024869	     45.31566383007017151385	     -2.12797482999524323333	   -176.48426372177002008357	      0.43252811291128634430	      0.62982038422088904017	     -0.61299683779151825647	    107.60288876830796311879	    -13.06842853462940823306	      2.41574818669740265520	     75.99528790020602286859	      1.32636798985960302488	     18.11377741820919951010	      0.00000000000000000000	      0.00000000000000000000	    105.60878937103376529194	     -5.81253959314530099789	     -0.99155001485491733870	     72.61847952745547729592	      1.26743156554619407217	     14.02460079144576354793	      0.00000000000000000000	      0.00000000000000000000	    -24.48339239020465640806	      2.77516252021938658601	      3.02960755293887284978	     64.56830547102309481033	    -14.34423933808037077142	     45.74715295409658466497	      2.47604401951733965603	     88.30327425979669442313	      0.00000000000000000000	      0.00000000000000000000	     55.10490167778626613426	      0.53112955964967822897	     49.49677700683807302084	      0.61814462408733150678	      2.72244348671133895579	      0.00000000000000000000	      0.00000000000000000000
      5.03500000000000014211	     45.27336056272807240930	     -1.88345437411006200179	   -176.55174081694676146981	      0.43237513877013622476	      0.63132759047996844792	     -0.61331598001660325714	    107.25340915520207829559	    -13.02914708346431993391	      2.07522235474496685725	     75.69924766107524760628	      1.32120111296837960957	     18.08576896025499536336	      0.00000000000000000000	      0.00000000000000000000	    105.41778712436369858096	     -5.72755440149419303708	     -0.56520887120040730345	     72.33017272633122729530	      1.26239966261068348174	     13.95441579929179454211	      0.00000000000000000000	      0.00000000000000000000	    -24.68902090293351037076	      3.00800374876331311214	      3.20175882252292876018	     64.67699030949034977311	    -14.35951355182043087666	     45.97072617819420514707	      2.43854848126295697952	     88.29982272191608672074	      0.00000000000000000000	      0.00000000000000000000	     55.11479212197514243599	      0.53917623045928064762	     49.84107236271039909070	      0.61655334257017868627	      2.70841333090488634028	      0.00000000000000000000	      0.00000000000000000000
      5.04000000000000003553	     45.37115376813426337321	     -1.89619654476923371611	   -176.58036011555023492292	      0.43247621271874309157	      0.63290599044291273589	     -0.61333428968065140108	    107.11486680526071779695	    -12.98023652180182452298	      2.04479896795847571056	     75.33024203690516173992	      1.31476074986823476820	     17.91698631735005164956	      0.00000000000000000000	      0.00000000000000000000	    105.26831258073413266629	     -5.75009938344939008914	     -0.62691008567255102069	     71.95205698600643984264	      1.25580029798839998278	     13.80823543960945798403	      0.00000000000000000000	      0.00000000000000000000	    -24.76872630720094292656	      3.00488822212522643795	      3.21547619422168340364	     64.77022212717672289273	    -14.34468374772912646620	     46.09019407209972740702	      2.41555089618985086020	     88.29860564015653778824	      0.00000000000000000000	      0.00000000000000000000	     55.19664407123662641652	      0.56237492187153437229	     49.73175553375293844738	      0.61502153497083478229	      2.71315228092397653370	      0.00000000000000000000	      0.00000000000000000000
